<svg width="72" height="72" viewBox="0 0 72 72" fill="none" xmlns="http://www.w3.org/2000/svg">
<path d="M57.6 16C50.252 16 43.656 14.668 37.704 8.70396C37.254 8.25452 36.644 8.00208 36.008 8.00208C35.372 8.00208 34.762 8.25452 34.312 8.70396C28.344 14.668 21.744 16 14.404 16C13.7675 16 13.157 16.2528 12.7069 16.7029C12.2569 17.153 12.004 17.7634 12.004 18.4V32.808C12.004 48.256 19.884 58.756 35.244 63.88C35.7373 64.0446 36.2707 64.0446 36.764 63.88C52.128 58.76 60.004 48.256 60.004 32.808V18.4C60.004 17.076 58.924 16 57.6 16ZM56 32.804C56 46.388 49.456 55.26 36 59.908C22.544 55.26 16 46.388 16 32.804V19.98C22.316 19.824 29.408 18.584 36.004 12.608C42.588 18.58 49.684 19.82 56 19.98V32.804ZM33.996 39.172L44.58 28.588C44.9555 28.2124 45.4649 28.0014 45.996 28.0014C46.5271 28.0014 47.0364 28.2124 47.412 28.588C47.7875 28.9635 47.9985 29.4729 47.9985 30.004C47.9985 30.5351 47.7875 31.0444 47.412 31.42L35.412 43.42C35.2262 43.6062 35.0055 43.754 34.7625 43.8548C34.5196 43.9556 34.2591 44.0075 33.996 44.0075C33.7329 44.0075 33.4724 43.9556 33.2295 43.8548C32.9865 43.754 32.7658 43.6062 32.58 43.42L26.58 37.42C26.394 37.234 26.2465 37.0133 26.1459 36.7703C26.0453 36.5273 25.9935 36.2669 25.9935 36.004C25.9935 35.741 26.0453 35.4806 26.1459 35.2376C26.2465 34.9947 26.394 34.7739 26.58 34.588C26.9555 34.2124 27.4649 34.0014 27.996 34.0014C28.259 34.0014 28.5194 34.0532 28.7623 34.1539C29.0053 34.2545 29.226 34.402 29.412 34.588L33.996 39.172Z" fill="#E55934"/>
</svg>
