<svg width="48" height="48" viewBox="0 0 48 48" fill="none" xmlns="http://www.w3.org/2000/svg">
<path d="M32 4V12M16 4V12M42 24C42 16.458 42 12.686 39.656 10.344C37.312 8.002 33.542 8 26 8H22C14.458 8 10.686 8 8.344 10.344C6.002 12.688 6 16.458 6 24V28C6 35.542 6 39.314 8.344 41.656C10.688 43.998 14.458 44 22 44M6 20H42" stroke="#E55934" stroke-width="3" stroke-linecap="round" stroke-linejoin="round"/>
<path d="M36.534 37.402L34 36V32.534M42 36C42 38.1217 41.1571 40.1566 39.6569 41.6569C38.1566 43.1571 36.1217 44 34 44C31.8783 44 29.8434 43.1571 28.3431 41.6569C26.8429 40.1566 26 38.1217 26 36C26 33.8783 26.8429 31.8434 28.3431 30.3431C29.8434 28.8429 31.8783 28 34 28C36.1217 28 38.1566 28.8429 39.6569 30.3431C41.1571 31.8434 42 33.8783 42 36Z" stroke="#E55934" stroke-width="3" stroke-linecap="round" stroke-linejoin="round"/>
</svg>
