<svg width="32" height="32" viewBox="0 0 32 32" fill="none" xmlns="http://www.w3.org/2000/svg">
<path d="M13.2733 14.8133C13.34 14.3733 13.4867 13.9867 13.6733 13.6533C13.86 13.32 14.1267 13.04 14.46 12.8267C14.78 12.6267 15.18 12.5333 15.6733 12.52C15.98 12.5333 16.26 12.5867 16.5133 12.6933C16.78 12.8133 17.02 12.9733 17.2067 13.1733C17.3933 13.3733 17.54 13.6133 17.66 13.88C17.78 14.1467 17.8333 14.44 17.8467 14.7333H20.2333C20.2067 14.1067 20.0867 13.5333 19.86 13.0133C19.6333 12.4933 19.3267 12.04 18.9267 11.6667C18.5267 11.2933 18.0467 11 17.4867 10.7867C16.9267 10.5733 16.3133 10.48 15.6333 10.48C14.7667 10.48 14.0067 10.6267 13.3667 10.9333C12.7267 11.24 12.1933 11.64 11.7667 12.16C11.34 12.68 11.02 13.28 10.82 13.9733C10.62 14.6667 10.5 15.3867 10.5 16.16V16.52C10.5 17.2933 10.6067 18.0133 10.8067 18.7067C11.0067 19.4 11.3267 20 11.7533 20.5067C12.18 21.0133 12.7133 21.4267 13.3533 21.72C13.9933 22.0133 14.7533 22.1733 15.62 22.1733C16.2467 22.1733 16.8333 22.0667 17.38 21.8667C17.9267 21.6667 18.4067 21.3867 18.82 21.0267C19.2333 20.6667 19.5667 20.2533 19.8067 19.7733C20.0467 19.2933 20.1933 18.7867 20.2067 18.24H17.82C17.8067 18.52 17.74 18.7733 17.62 19.0133C17.5 19.2533 17.34 19.4533 17.14 19.6267C16.94 19.8 16.7133 19.9333 16.4467 20.0267C16.1933 20.12 15.9267 20.1467 15.6467 20.16C15.1667 20.1467 14.7667 20.0533 14.46 19.8533C14.1267 19.64 13.86 19.36 13.6733 19.0267C13.4867 18.6933 13.34 18.2933 13.2733 17.8533C13.2067 17.4133 13.1667 16.96 13.1667 16.52V16.16C13.1667 15.6933 13.2067 15.2533 13.2733 14.8133ZM15.8333 3C8.47333 3 2.5 8.97333 2.5 16.3333C2.5 23.6933 8.47333 29.6667 15.8333 29.6667C23.1933 29.6667 29.1667 23.6933 29.1667 16.3333C29.1667 8.97333 23.1933 3 15.8333 3ZM15.8333 27C9.95333 27 5.16667 22.2133 5.16667 16.3333C5.16667 10.4533 9.95333 5.66667 15.8333 5.66667C21.7133 5.66667 26.5 10.4533 26.5 16.3333C26.5 22.2133 21.7133 27 15.8333 27Z" fill="#4D6CFA"/>
</svg>
