<svg width="35" height="58" viewBox="0 0 35 58" fill="none" xmlns="http://www.w3.org/2000/svg">
<path d="M4.46997 57.5037V46.578C10.7954 46.7377 22.1044 43.7986 23.1587 29.231C24.1881 15.0055 10.6037 10.9576 4.46997 10.734V0H8.39939L9.07027 4.31278L13.7664 5.17533L16.2582 2.01263L22.5836 5.17533L21.146 9.58395L24.7879 12.555L28.6215 11.3091L32.0717 17.0594L28.6215 20.318L29.9633 24.2474L34.3719 25.3016V32.2979L29.9633 33.2563L28.6215 37.6649L32.0717 40.4443L28.6215 46.0988L24.2129 45.0446L21.146 48.2073L22.5836 52.1367L16.4499 55.4911L13.2872 52.1367L9.07027 53.2867L8.30355 57.5037H4.46997Z" fill="#E55934"/>
<rect y="21.1163" width="14.951" height="5.24054" fill="#4D6CFA"/>
<rect y="31.5974" width="14.951" height="5.39468" fill="#4D6CFA"/>
</svg>
