<svg width="72" height="72" viewBox="0 0 72 72" fill="none" xmlns="http://www.w3.org/2000/svg">
<path d="M31.35 46.5C32.55 47.7 34.1 48.288 36 48.264C37.9 48.24 39.3 47.552 40.2 46.2L57 21L31.8 37.8C30.45 38.7 29.738 40.075 29.664 41.925C29.59 43.775 30.152 45.3 31.35 46.5ZM36 12C38.95 12 41.788 12.412 44.514 13.236C47.24 14.06 49.802 15.298 52.2 16.95L46.5 20.55C44.85 19.7 43.138 19.063 41.364 18.639C39.59 18.215 37.802 18.002 36 18C29.35 18 23.687 20.338 19.011 25.014C14.335 29.69 11.998 35.352 12 42C12 44.1 12.288 46.175 12.864 48.225C13.44 50.275 14.252 52.2 15.3 54H56.7C57.85 52.1 58.688 50.125 59.214 48.075C59.74 46.025 60.002 43.9 60 41.7C60 39.9 59.787 38.15 59.361 36.45C58.935 34.75 58.298 33.1 57.45 31.5L61.05 25.8C62.55 28.15 63.738 30.65 64.614 33.3C65.49 35.95 65.952 38.7 66 41.55C66.048 44.4 65.723 47.125 65.025 49.725C64.327 52.325 63.302 54.8 61.95 57.15C61.4 58.05 60.65 58.75 59.7 59.25C58.75 59.75 57.75 60 56.7 60H15.3C14.25 60 13.25 59.75 12.3 59.25C11.35 58.75 10.6 58.05 10.05 57.15C8.75 54.9 7.75 52.513 7.05 49.989C6.35 47.465 6 44.802 6 42C6 37.85 6.788 33.963 8.364 30.339C9.94 26.715 12.09 23.54 14.814 20.814C17.538 18.088 20.725 15.938 24.375 14.364C28.025 12.79 31.9 12.002 36 12Z" fill="#E55934"/>
</svg>
