<svg width="72" height="72" viewBox="0 0 72 72" fill="none" xmlns="http://www.w3.org/2000/svg">
<path d="M30.87 30.39L17.73 31.5L27.69 40.14L24.72 52.98L36 46.17L38.28 47.55C37.5 48.99 36.96 50.55 36.57 52.17L36 51.81L17.46 63L22.35 41.91L6 27.72L27.57 25.89L36 6L44.43 25.89L66 27.72L56.4 36C52.0308 36.1361 47.8137 37.6363 44.34 40.29L44.31 40.14L54.27 31.5L41.13 30.39L36 18.27L30.87 30.39ZM71.49 61.92L68.49 67.11C68.28 67.5 67.89 67.5 67.5 67.5L63.81 66C63 66.54 62.19 67.02 61.29 67.41L60.72 71.37C60.66 71.73 60.33 72 60 72H54C53.58 72 53.28 71.73 53.22 71.37L52.65 67.41C51.72 67.05 50.88 66.54 50.1 66L46.38 67.5C46.02 67.5 45.63 67.5 45.45 67.11L42.45 61.92C42.3662 61.7634 42.3384 61.5829 42.3711 61.4083C42.4039 61.2338 42.4952 61.0756 42.63 60.96L45.81 58.5C45.6905 57.5036 45.6905 56.4964 45.81 55.5L42.63 53.04C42.4903 52.9279 42.3953 52.7694 42.3623 52.5933C42.3293 52.4172 42.3604 52.2351 42.45 52.08L45.45 46.89C45.66 46.5 46.05 46.5 46.38 46.5L50.1 48C50.88 47.46 51.75 46.98 52.65 46.59L53.22 42.63C53.2552 42.4501 53.3527 42.2883 53.4954 42.1731C53.638 42.0579 53.8167 41.9966 54 42H60C60.33 42 60.66 42.27 60.69 42.63L61.26 46.59C62.19 46.95 63 47.46 63.81 48L67.5 46.5C67.89 46.5 68.28 46.5 68.46 46.89L71.46 52.08C71.64 52.41 71.55 52.8 71.28 53.04L68.1 55.5C68.19 56.01 68.22 56.49 68.22 57C68.22 57.51 68.16 57.99 68.1 58.5L71.31 60.96C71.58 61.2 71.67 61.59 71.49 61.92ZM61.5 57C61.5 54.51 59.49 52.5 57 52.5C54.51 52.5 52.5 54.51 52.5 57C52.5 59.49 54.48 61.5 57 61.5C59.49 61.5 61.5 59.49 61.5 57Z" fill="#E55934"/>
</svg>
