<svg width="72" height="72" viewBox="0 0 72 72" fill="none" xmlns="http://www.w3.org/2000/svg">
<path d="M67.38 18C65.07 19.05 62.58 19.74 60 20.07C62.64 18.48 64.68 15.96 65.64 12.93C63.15 14.43 60.39 15.48 57.48 16.08C55.11 13.5 51.78 12 48 12C40.95 12 35.19 17.76 35.19 24.87C35.19 25.89 35.31 26.88 35.52 27.81C24.84 27.27 15.33 22.14 9 14.37C7.89 16.26 7.26 18.48 7.26 20.82C7.26 25.29 9.51 29.25 12.99 31.5C10.86 31.5 8.88 30.9 7.14 30V30.09C7.14 36.33 11.58 41.55 17.46 42.72C15.5725 43.2388 13.5901 43.3107 11.67 42.93C12.4848 45.4874 14.0806 47.7252 16.2331 49.3288C18.3855 50.9324 20.9863 51.8211 23.67 51.87C19.121 55.4715 13.482 57.4182 7.68 57.39C6.66 57.39 5.64 57.33 4.62 57.21C10.32 60.87 17.1 63 24.36 63C48 63 60.99 43.38 60.99 26.37C60.99 25.8 60.99 25.26 60.96 24.69C63.48 22.89 65.64 20.61 67.38 18Z" fill="#E55934"/>
</svg>
