<svg width="48" height="48" viewBox="0 0 48 48" fill="none" xmlns="http://www.w3.org/2000/svg">
<path fill-rule="evenodd" clip-rule="evenodd" d="M17.924 36.938C12.038 32.4279 4 24.978 4 17.934C4 6.16595 15 1.77195 24 10.86C33 1.77195 44 6.16595 44 17.934C44 24.978 35.96 32.4279 30.076 36.938C27.412 38.978 26.08 40 24 40C21.92 40 20.588 38.9799 17.924 36.938ZM33 12.5C33.3978 12.5 33.7794 12.658 34.0607 12.9393C34.342 13.2206 34.5 13.6021 34.5 14V16.5H37C37.3978 16.5 37.7794 16.658 38.0607 16.9393C38.342 17.2206 38.5 17.6021 38.5 18C38.5 18.3978 38.342 18.7793 38.0607 19.0606C37.7794 19.3419 37.3978 19.5 37 19.5H34.5V22C34.5 22.3978 34.342 22.7793 34.0607 23.0606C33.7794 23.3419 33.3978 23.5 33 23.5C32.6022 23.5 32.2206 23.3419 31.9393 23.0606C31.658 22.7793 31.5 22.3978 31.5 22V19.5H29C28.6022 19.5 28.2206 19.3419 27.9393 19.0606C27.658 18.7793 27.5 18.3978 27.5 18C27.5 17.6021 27.658 17.2206 27.9393 16.9393C28.2206 16.658 28.6022 16.5 29 16.5H31.5V14C31.5 13.6021 31.658 13.2206 31.9393 12.9393C32.2206 12.658 32.6022 12.5 33 12.5Z" fill="#E55934"/>
</svg>
