<svg width="32" height="32" viewBox="0 0 32 32" fill="none" xmlns="http://www.w3.org/2000/svg">
<path d="M20.32 2.66675H15.128C12.776 2.66675 10.912 2.66675 9.45467 2.86408C7.95333 3.06675 6.73867 3.49341 5.78133 4.45475C4.82267 5.41608 4.39733 6.63608 4.196 8.14275C4 9.60675 4 11.4774 4 13.8387V21.6227C4 23.6334 5.22667 25.3561 6.96933 26.0787C6.88 24.8654 6.88 23.1654 6.88 21.7494V15.0694C6.88 13.3614 6.88 11.8881 7.03733 10.7094C7.20667 9.44541 7.588 8.23475 8.56667 7.25208C9.54533 6.26941 10.752 5.88675 12.0107 5.71608C13.184 5.55875 14.6507 5.55875 16.3533 5.55875H20.4467C22.148 5.55875 23.612 5.55875 24.7867 5.71608C24.4348 4.81781 23.8204 4.0464 23.0237 3.50246C22.2269 2.95852 21.2847 2.66729 20.32 2.66675Z" fill="#4D6CFA"/>
<path d="M8.80005 15.196C8.80005 11.5614 8.80005 9.74402 9.92538 8.61468C11.0494 7.48535 12.8587 7.48535 16.48 7.48535H20.32C23.94 7.48535 25.7507 7.48535 26.876 8.61468C28.0014 9.74402 28 11.5614 28 15.196V21.6227C28 25.2573 28 27.0747 26.876 28.204C25.7507 29.3333 23.94 29.3333 20.32 29.3333H16.48C12.86 29.3333 11.0494 29.3333 9.92538 28.204C8.80005 27.0747 8.80005 25.2573 8.80005 21.6227V15.196Z" fill="#4D6CFA"/>
</svg>
