<svg width="48" height="48" viewBox="0 0 48 48" fill="none" xmlns="http://www.w3.org/2000/svg">
<path d="M1 47H47M10.122 17.75L15.878 11.992M21.122 10.992L25.878 15.75M30.094 15.722L37.906 8.392M9 37L3 39V47H9V37ZM21 25L15 27V47H21V25ZM33 31L27 33V47H33V31ZM45 18.128L39 20.128V47H45V18.128ZM40 2L35.756 6.24L40 10.484L44.242 6.244L40 2ZM28 13.63L23.758 17.87L28 22.116L32.242 17.874L28 13.63ZM18 5.63L13.76 9.87L18 14.116L22.242 9.874L18.002 5.632L18 5.63ZM8 15.63L3.76 19.87L8 24.116L12.244 19.874L8 15.63Z" stroke="#E55934" stroke-width="2" stroke-miterlimit="10" stroke-linecap="round" stroke-linejoin="round"/>
</svg>
