<svg width="336" height="58" viewBox="0 0 336 58" fill="none" xmlns="http://www.w3.org/2000/svg">
<path d="M305.47 57.5037V46.578C311.795 46.7377 323.104 43.7986 324.159 29.231C325.188 15.0055 311.604 10.9576 305.47 10.734V0H309.399L310.07 4.31278L314.766 5.17533L317.258 2.01263L323.584 5.17533L322.146 9.58395L325.788 12.555L329.622 11.3091L333.072 17.0594L329.622 20.318L330.963 24.2474L335.372 25.3016V32.2979L330.963 33.2563L329.622 37.6649L333.072 40.4443L329.622 46.0988L325.213 45.0446L322.146 48.2073L323.584 52.1367L317.45 55.4911L314.287 52.1367L310.07 53.2867L309.304 57.5037H305.47Z" fill="#E55934"/>
<rect x="301" y="21.1163" width="14.951" height="5.24054" fill="#4D6CFA"/>
<rect x="301" y="31.5974" width="14.951" height="5.39468" fill="#4D6CFA"/>
<path d="M21.5064 45V17.4083H26.8735V45H21.5064ZM3.40171 45V17.4083H8.76886V45H3.40171ZM7.78614 33.5476V28.823H22.4891V33.5476H7.78614ZM33.6687 45V17.4083H38.9224V45H33.6687ZM38.1665 45V40.4644H50.6772V45H38.1665ZM38.1665 33.2452V28.7096H49.6945V33.2452H38.1665ZM38.1665 21.944V17.4083H50.3749V21.944H38.1665ZM65.3743 45.7181C62.9301 45.7181 60.8639 45.3276 59.1756 44.5464C57.5125 43.7653 56.2401 42.6944 55.3581 41.3337C54.4762 39.9478 54.0352 38.3856 54.0352 36.6469H59.289C59.289 37.3776 59.4906 38.0958 59.8937 38.8013C60.2969 39.4817 60.9395 40.036 61.8214 40.4644C62.7285 40.8927 63.9128 41.1069 65.3743 41.1069C66.6846 41.1069 67.7807 40.9179 68.6626 40.54C69.5445 40.162 70.1997 39.6707 70.628 39.0659C71.0564 38.436 71.2706 37.7304 71.2706 36.9493C71.2706 35.9666 70.8548 35.1854 70.0233 34.6059C69.1918 34.0011 67.9067 33.6232 66.168 33.472L63.749 33.283C61.1032 33.0562 58.9866 32.2373 57.3992 30.8262C55.8369 29.3899 55.0558 27.5001 55.0558 25.1567C55.0558 23.3928 55.4715 21.881 56.303 20.6211C57.1346 19.336 58.2937 18.3533 59.7804 17.6729C61.2922 16.9674 63.0561 16.6146 65.0719 16.6146C67.1633 16.6146 68.965 16.98 70.4768 17.7107C71.9887 18.4415 73.1604 19.4746 73.9919 20.81C74.8235 22.1203 75.2392 23.67 75.2392 25.4591H69.9855C69.9855 24.7031 69.7965 24.0102 69.4185 23.3802C69.0658 22.7251 68.524 22.2085 67.7933 21.8306C67.0877 21.4274 66.1806 21.2258 65.0719 21.2258C64.0136 21.2258 63.1317 21.4022 62.4261 21.755C61.7206 22.1077 61.1914 22.5865 60.8387 23.1912C60.4859 23.796 60.3095 24.4511 60.3095 25.1567C60.3095 26.0134 60.6245 26.7693 61.2544 27.4245C61.8844 28.0544 62.8797 28.4198 64.2404 28.5206L66.6594 28.7474C68.6248 28.8986 70.3509 29.3143 71.8375 29.9947C73.3242 30.675 74.4707 31.5947 75.277 32.7538C76.1086 33.9129 76.5243 35.3114 76.5243 36.9493C76.5243 38.6879 76.0708 40.225 75.1637 41.5605C74.2565 42.8708 72.9588 43.8913 71.2706 44.622C69.6075 45.3528 67.6421 45.7181 65.3743 45.7181ZM78.5255 45L87.9369 17.4083H96.7058L106.382 45H100.863L92.6615 21.0746L94.5891 21.9062H89.8645L91.83 21.0746L83.8926 45H78.5255ZM85.1021 37.6674L86.803 33.1318H97.9908L99.6539 37.6674H85.1021ZM115.092 36.5335V31.8845H120.459C121.542 31.8845 122.449 31.6703 123.18 31.242C123.936 30.8136 124.503 30.2215 124.881 29.4655C125.284 28.7096 125.486 27.8403 125.486 26.8575C125.486 25.8748 125.284 25.0055 124.881 24.2496C124.503 23.4936 123.936 22.9141 123.18 22.5109C122.449 22.0825 121.542 21.8684 120.459 21.8684H115.092V17.2194H120.005C122.323 17.2194 124.289 17.5973 125.901 18.3533C127.539 19.1092 128.787 20.1927 129.643 21.6038C130.5 22.9897 130.928 24.6401 130.928 26.5552V27.1599C130.928 29.0749 130.5 30.738 129.643 32.1491C128.787 33.535 127.539 34.6185 125.901 35.3996C124.289 36.1555 122.323 36.5335 120.005 36.5335H115.092ZM110.48 45V17.2194H115.847V45H110.48ZM135.358 45V17.4083H140.725V45H135.358ZM139.97 45V40.2754H151.876V45H139.97ZM153.824 45L163.235 17.4083H172.004L181.68 45H176.162L167.96 21.0746L169.887 21.9062H165.163L167.128 21.0746L159.191 45H153.824ZM160.4 37.6674L162.101 33.1318H173.289L174.952 37.6674H160.4ZM188.634 34.4547L180.319 17.4083H185.837L192.187 30.7506L190.977 30.3726H194.568L193.283 30.7506L199.066 17.4083H204.282L196.609 34.4547H188.634ZM189.995 45V33.6232H195.248V45H189.995ZM208.185 45V17.4083H213.552V45H208.185ZM232.873 45.7181C230.379 45.7181 228.237 45.2772 226.448 44.3953C224.659 43.5133 223.197 42.3668 222.063 40.9557C220.955 39.5447 220.136 38.0076 219.606 36.3445C219.077 34.6815 218.813 33.0814 218.813 31.5443V30.7128C218.813 28.9994 219.077 27.3111 219.606 25.648C220.161 23.985 221.005 22.4731 222.139 21.1124C223.273 19.7517 224.709 18.6682 226.448 17.8619C228.212 17.0304 230.29 16.6146 232.684 16.6146C235.179 16.6146 237.346 17.0682 239.185 17.9753C241.05 18.8572 242.537 20.1171 243.645 21.755C244.754 23.3676 245.422 25.2575 245.648 27.4245H240.244C240.042 26.1646 239.588 25.1063 238.883 24.2496C238.202 23.3676 237.333 22.7125 236.275 22.2841C235.217 21.8306 234.02 21.6038 232.684 21.6038C231.323 21.6038 230.114 21.8432 229.056 22.3219C227.997 22.7755 227.115 23.4306 226.41 24.2874C225.704 25.1441 225.163 26.152 224.785 27.3111C224.432 28.4702 224.255 29.7553 224.255 31.1664C224.255 32.5271 224.432 33.787 224.785 34.9461C225.163 36.1052 225.717 37.1257 226.448 38.0076C227.178 38.8643 228.073 39.5321 229.131 40.0108C230.215 40.4896 231.462 40.729 232.873 40.729C234.939 40.729 236.678 40.225 238.089 39.2171C239.525 38.184 240.395 36.7477 240.697 34.9083H246.102C245.85 36.8737 245.182 38.6753 244.099 40.3132C243.015 41.9511 241.529 43.2613 239.639 44.2441C237.749 45.2268 235.494 45.7181 232.873 45.7181ZM250.707 45V17.4083H256.074V45H250.707ZM262.959 45V17.4083H270.292L277.209 33.8877H277.889L284.768 17.4083H292.214V45H286.885V21.4526L287.565 21.5282L280.119 39.3683H274.639L267.155 21.5282L267.873 21.4526V45H262.959Z" fill="white"/>
</svg>
