<svg width="67" height="67" viewBox="0 0 67 67" fill="none" xmlns="http://www.w3.org/2000/svg">
<path d="M42.545 5.58337H31.6742C26.7498 5.58337 22.847 5.58337 19.7957 5.99654C16.6523 6.42087 14.1091 7.31421 12.1047 9.327C10.0975 11.3398 9.20692 13.8942 8.78538 17.0487C8.375 20.114 8.375 24.0307 8.375 28.9747V45.2725C8.375 49.4823 10.9433 53.0892 14.592 54.6022C14.405 52.0618 14.405 48.5025 14.405 45.5377V31.5515C14.405 27.9753 14.405 24.8905 14.7344 22.4227C15.089 19.7762 15.8874 17.2414 17.9365 15.1839C19.9855 13.1265 22.512 12.3252 25.1473 11.9679C27.604 11.6385 30.6748 11.6385 34.2398 11.6385H42.8102C46.3724 11.6385 49.4376 11.6385 51.8971 11.9679C51.1604 10.0872 49.874 8.47202 48.2058 7.33314C46.5376 6.19427 44.5649 5.58451 42.545 5.58337Z" fill="#1A265E"/>
<path d="M18.425 31.8167C18.425 24.2066 18.425 20.4016 20.7812 18.037C23.1346 15.6725 26.9229 15.6725 34.505 15.6725H42.545C50.1244 15.6725 53.9155 15.6725 56.2717 18.037C58.6278 20.4016 58.625 24.2066 58.625 31.8167V45.2725C58.625 52.8826 58.625 56.6876 56.2717 59.0522C53.9155 61.4167 50.1244 61.4167 42.545 61.4167H34.505C26.9257 61.4167 23.1346 61.4167 20.7812 59.0522C18.425 56.6876 18.425 52.8826 18.425 45.2725V31.8167Z" fill="#1A265E"/>
</svg>
