<svg width="48" height="48" viewBox="0 0 48 48" fill="none" xmlns="http://www.w3.org/2000/svg">
<path d="M24 11.5861C26.3749 13.3177 28.6098 15.2336 30.684 17.3161C32.7664 19.3902 34.6824 21.6251 36.414 24.0001M24 11.5861C21.6251 13.3177 19.3902 15.2336 17.316 17.3161C15.2336 19.3902 13.3176 21.6251 11.586 24.0001M24 11.5861C31.14 6.41806 37.894 4.47806 40.708 7.29206C43.522 10.1061 41.582 16.8601 36.414 24.0001M36.414 24.0001C41.582 31.1401 43.522 37.8941 40.708 40.7081C38.622 42.7941 34.368 42.2681 29.4 39.7481M36.414 24.0001C34.6824 26.375 32.7664 28.6099 30.684 30.6841C28.6098 32.7665 26.3749 34.6824 24 36.4141M11.586 24.0001C13.3176 26.375 15.2336 28.6099 17.316 30.6841C19.3902 32.7665 21.6251 34.6824 24 36.4141M11.586 24.0001C6.418 31.1401 4.478 37.8941 7.292 40.7081C10.106 43.5221 16.86 41.5821 24 36.4141M11.586 24.0001C6.42 16.8601 4.48 10.1061 7.292 7.29206C9.378 5.20606 13.632 5.73206 18.6 8.25206" stroke="#E55934" stroke-width="3" stroke-linecap="round"/>
<path d="M24 28C26.2091 28 28 26.2091 28 24C28 21.7909 26.2091 20 24 20C21.7909 20 20 21.7909 20 24C20 26.2091 21.7909 28 24 28Z" stroke="#E55934" stroke-width="3"/>
</svg>
