<svg width="48" height="48" viewBox="0 0 48 48" fill="none" xmlns="http://www.w3.org/2000/svg">
<path d="M25.714 8.12002L37.446 17.754C38.106 18.294 38.5 19.126 38.5 20.014V37.62C38.5 39.248 37.224 40.5 35.734 40.5H30.5V31C30.5 29.5413 29.9205 28.1424 28.8891 27.1109C27.8576 26.0795 26.4587 25.5 25 25.5H23C21.5413 25.5 20.1424 26.0795 19.1109 27.1109C18.0795 28.1424 17.5 29.5413 17.5 31V40.5H12.266C10.776 40.5 9.5 39.248 9.5 37.62V20.016C9.5 19.126 9.894 18.296 10.554 17.756L22.286 8.11802C22.7674 7.71754 23.3738 7.49826 24 7.49826C24.6262 7.49826 25.2326 7.71954 25.714 8.12002ZM35.734 43.498C38.954 43.498 41.5 40.828 41.5 37.618V20.014C41.5023 19.1392 41.3107 18.2747 40.9389 17.4828C40.5672 16.6908 40.0245 15.9911 39.35 15.434L27.62 5.80002C26.602 4.95883 25.3226 4.49866 24.002 4.49866C22.6814 4.49866 21.402 4.95883 20.384 5.80002L8.65 15.436C7.97548 15.9931 7.43283 16.6928 7.06107 17.4848C6.68931 18.2767 6.49769 19.1412 6.5 20.016V37.62C6.5 40.83 9.046 43.5 12.266 43.5L35.734 43.498Z" fill="#E55934"/>
</svg>
