<svg width="48" height="48" viewBox="0 0 48 48" fill="none" xmlns="http://www.w3.org/2000/svg">
<path d="M14 42L22 18M26 18L28.96 26.878M30.858 32.572L34 42M24 10C25.0609 10 26.0783 10.4214 26.8284 11.1716C27.5786 11.9217 28 12.9391 28 14C28 15.0609 27.5786 16.0783 26.8284 16.8284C26.0783 17.5786 25.0609 18 24 18C22.9391 18 21.9217 17.5786 21.1716 16.8284C20.4214 16.0783 20 15.0609 20 14C20 12.9391 20.4214 11.9217 21.1716 11.1716C21.9217 10.4214 22.9391 10 24 10ZM24 10V6M8 24C11.052 29.91 17.176 34 24 34C30.82 34 36.946 29.904 40 24" stroke="#E55934" stroke-width="4" stroke-linecap="round" stroke-linejoin="round"/>
</svg>
