<svg width="48" height="48" viewBox="0 0 48 48" fill="none" xmlns="http://www.w3.org/2000/svg">
<g clip-path="url(#clip0_16_221)">
<path d="M23.8265 -0.057267C23.7484 -0.0431684 23.6713 -0.0240518 23.5957 -3.62247e-05C23.1789 0.0933823 22.8074 0.328438 22.5445 0.665076C22.2816 1.00171 22.1435 1.4191 22.1538 1.84612V3.69227H5.53846C4.06957 3.69227 2.66084 4.27579 1.62218 5.31445C0.583515 6.35311 0 7.76184 0 9.23073L0 33.2307C0 36.288 2.48123 38.7692 5.53846 38.7692H22.1538V39.4615L12.1145 44.4812C11.6709 44.6954 11.3305 45.0771 11.1683 45.5422C11.0061 46.0074 11.0353 46.5179 11.2495 46.9615C11.4638 47.4051 11.8454 47.7454 12.3106 47.9077C12.7757 48.0699 13.2862 48.0406 13.7298 47.8264L22.1538 43.6153V44.3077C22.1538 44.7973 22.3484 45.2669 22.6946 45.6131C23.0408 45.9593 23.5104 46.1538 24 46.1538C24.4896 46.1538 24.9592 45.9593 25.3054 45.6131C25.6516 45.2669 25.8462 44.7973 25.8462 44.3077V43.6153L34.2702 47.8264C34.7138 48.0406 35.2243 48.0699 35.6894 47.9077C36.1546 47.7454 36.5362 47.4051 36.7505 46.9615C36.9647 46.5179 36.9939 46.0074 36.8317 45.5422C36.6695 45.0771 36.3291 44.6954 35.8855 44.4812L25.8462 39.4615V38.7692H42.4615C45.5188 38.7692 48 36.288 48 33.2307V9.23073C48 7.76184 47.4165 6.35311 46.3778 5.31445C45.3392 4.27579 43.9304 3.69227 42.4615 3.69227H25.8462V1.84612C25.8555 1.58359 25.8087 1.3221 25.7088 1.07911C25.609 0.836118 25.4585 0.617228 25.2673 0.437063C25.0762 0.256897 24.8487 0.119605 24.6003 0.0343583C24.3518 -0.0508881 24.088 -0.0821256 23.8265 -0.057267ZM3.69231 9.23073H44.3077V33.2307H3.69231V9.23073ZM38.5385 11.0769C38.1249 11.1213 37.7385 11.3041 37.4418 11.5957L31.3846 17.6547L27.1735 13.44C26.9719 13.233 26.7244 13.0763 26.4512 12.9825C26.1779 12.8886 25.8864 12.8602 25.6001 12.8995C25.3139 12.9388 25.0408 13.0448 24.803 13.2089C24.5652 13.373 24.3692 13.5906 24.2308 13.8443L18.7495 23.4221L16.4991 17.7673C16.3898 17.4754 16.2084 17.2158 15.9717 17.0129C15.735 16.81 15.4508 16.6703 15.1456 16.6069C14.8403 16.5435 14.524 16.5585 14.2261 16.6503C13.9282 16.7422 13.6584 16.908 13.4418 17.1323L7.90338 22.6707C7.72883 22.8452 7.59034 23.0523 7.49582 23.2802C7.40131 23.5082 7.35261 23.7525 7.35253 23.9993C7.35244 24.2461 7.40096 24.4905 7.49532 24.7185C7.58968 24.9465 7.72803 25.1537 7.90246 25.3283C8.0769 25.5028 8.28401 25.6413 8.51196 25.7358C8.73992 25.8304 8.98426 25.879 9.23104 25.8791C9.47781 25.8792 9.72219 25.8307 9.95021 25.7363C10.1782 25.642 10.3854 25.5036 10.56 25.3292L14.0788 21.8104L16.7335 28.3864C16.8588 28.7162 17.076 29.0032 17.3593 29.2134C17.6427 29.4236 17.9803 29.5483 18.3323 29.5726C18.6843 29.5968 19.0358 29.5198 19.3453 29.3504C19.6548 29.1811 19.9094 28.9267 20.0788 28.6172L26.2523 17.8283L30.0591 21.6369C30.2312 21.815 30.4375 21.9566 30.6655 22.0534C30.8936 22.1501 31.1387 22.1999 31.3865 22.1999C31.6342 22.1999 31.8794 22.1501 32.1074 22.0534C32.3354 21.9566 32.5417 21.815 32.7138 21.6369L40.0985 14.2523C40.3901 13.9823 40.5868 13.6254 40.6594 13.2347C40.732 12.8439 40.6765 12.4402 40.5013 12.0835C40.326 11.7268 40.0404 11.4362 39.6867 11.2548C39.3331 11.0735 38.9304 11.0111 38.5385 11.0769Z" fill="#E55934"/>
</g>
<defs>
<clipPath id="clip0_16_221">
<rect width="48" height="48" fill="white"/>
</clipPath>
</defs>
</svg>
